<svg xmlns="http://www.w3.org/2000/svg" xmlns:xlink="http://www.w3.org/1999/xlink">
	<defs>
		<symbol id="arrow-right-up" viewBox="0 0 16 16" fill="none" xmlns="http://www.w3.org/2000/svg">
			<path d="M10.6693 6.27614L4.93158 12.0139L3.98877 11.0711L9.7265 5.33333H4.66932V4H12.0026V11.3333H10.6693V6.27614Z" fill="currentColor"/>
		</symbol>
		<symbol fill="none" xmlns="http://www.w3.org/2000/svg" viewBox="0 0 16 16" id="menu">
			<path d="M2 2.66675H14V4.00008H2V2.66675ZM2 7.33342H14V8.66675H2V7.33342ZM2 12.0001H14V13.3334H2V12.0001Z" fill="white"></path>
		</symbol>
		<symbol fill="none" xmlns="http://www.w3.org/2000/svg" viewBox="0 0 16 16" id="close">
			<path d="M7.99972 7.05767L11.2996 3.75781L12.2424 4.70062L8.94252 8.00047L12.2424 11.3003L11.2996 12.2431L7.99972 8.94327L4.69989 12.2431L3.75708 11.3003L7.05692 8.00047L3.75708 4.70062L4.69989 3.75781L7.99972 7.05767Z" fill="currentColor"></path>
		</symbol>
		<symbol fill="none" xmlns="http://www.w3.org/2000/svg" viewBox="0 0 16 16" id="arrow-down-s">
			<path d="M7.99993 8.78101L11.2998 5.4812L12.2426 6.42401L7.99993 10.6667L3.75732 6.42401L4.70013 5.4812L7.99993 8.78101Z" fill="currentColor"/>
		</symbol>
		<symbol fill="none" xmlns="http://www.w3.org/2000/svg" viewBox="0 0 485 125" id="Icons">
			<path d="M143 54.6667H155V56.0001H143V54.6667ZM143 59.3334H155V60.6667H143V59.3334ZM143 64.0001H155V65.3334H143V64.0001Z" fill="white"></path>
			<path d="M44.9997 59.0577L48.2996 55.7578L49.2424 56.7006L45.9425 60.0005L49.2424 63.3003L48.2996 64.2431L44.9997 60.9433L41.6999 64.2431L40.7571 63.3003L44.0569 60.0005L40.7571 56.7006L41.6999 55.7578L44.9997 59.0577Z" fill="white"></path>
			<path d="M96.3333 59.3333V55.3333H97.6666V59.3333H101.667V60.6666H97.6666V64.6666H96.3333V60.6666H92.3333V59.3333H96.3333Z" fill="white"></path>
			<path d="M203.669 58.2761L197.931 64.0139L196.989 63.0711L202.726 57.3333H197.669V56H205.002V63.3333H203.669V58.2761Z" fill="white"></path>
			<path d="M253 60.781L256.3 57.4812L257.243 58.424L253 62.6667L248.757 58.424L249.7 57.4812L253 60.781Z" fill="white"></path>
		</symbol>
		<symbol fill="none" xmlns="http://www.w3.org/2000/svg" viewBox="0 0 16 16" id="add">
			<path d="M7.33325 7.33325V3.33325H8.66658V7.33325H12.6666V8.66658H8.66658V12.6666H7.33325V8.66658H3.33325V7.33325H7.33325Z" fill="white"></path>
		</symbol>
		<symbol id="chevron" xmlns="http://www.w3.org/2000/svg" viewBox="0 0 16 16" fill="none">
			<path d="M7.99993 8.78101L11.2998 5.4812L12.2426 6.42401L7.99993 10.6667L3.75732 6.42401L4.70013 5.4812L7.99993 8.78101Z" fill="currentColor"/>
		</symbol>
		<symbol id="triangle" xmlns="http://www.w3.org/2000/svg" viewBox="0 0 24 24" fill="none">
			<path d="M12 14L8 10H16L12 14Z" fill="currentColor"/>
		</symbol>
		<symbol id="clock" xmlns="http://www.w3.org/2000/svg" viewBox="0 0 16 17" fill="none">
			<path d="M7.99992 15.1666C4.31802 15.1666 1.33325 12.1818 1.33325 8.49998C1.33325 4.81808 4.31802 1.83331 7.99992 1.83331C11.6818 1.83331 14.6666 4.81808 14.6666 8.49998C14.6666 12.1818 11.6818 15.1666 7.99992 15.1666ZM7.99992 13.8333C10.9455 13.8333 13.3333 11.4455 13.3333 8.49998C13.3333 5.55446 10.9455 3.16665 7.99992 3.16665C5.0544 3.16665 2.66659 5.55446 2.66659 8.49998C2.66659 11.4455 5.0544 13.8333 7.99992 13.8333ZM8.66659 8.49998H11.3333V9.83331H7.33325V5.16665H8.66659V8.49998Z" fill="currentColor"/>
		</symbol>
		<symbol id="quote" xmlns="http://www.w3.org/2000/svg" viewBox="0 0 16 16" fill="none">
			<path d="M12.9446 4.45263C13.6314 5.18173 14.0002 6.00002 14.0002 7.32649C14.0002 9.65942 12.3626 11.7509 9.97983 12.7846L9.38469 11.8662C11.6082 10.6631 12.0428 9.10262 12.2165 8.11869C11.8585 8.30382 11.3898 8.36889 10.9304 8.32635C9.72749 8.21482 8.77943 7.22729 8.77943 6.00002C8.77943 4.71135 9.82409 3.66669 11.1128 3.66669C11.8282 3.66669 12.5122 3.99365 12.9446 4.45263ZM6.27795 4.45263C6.96476 5.18173 7.33356 6.00002 7.33356 7.32649C7.33356 9.65942 5.69589 11.7509 3.31317 12.7846L2.71804 11.8662C4.94153 10.6631 5.37611 9.10262 5.54981 8.11869C5.19181 8.30382 4.72317 8.36889 4.26375 8.32635C3.06084 8.21482 2.11279 7.22729 2.11279 6.00002C2.11279 4.71135 3.15746 3.66669 4.44613 3.66669C5.16149 3.66669 5.84559 3.99365 6.27795 4.45263Z" fill="currentColor" fill-opacity="0.5"/>
		</symbol>
		<symbol id="arrow-right-line" xmlns="http://www.w3.org/2000/svg" viewBox="0 0 16 16" fill="none">
			<path d="M10.7811 7.33327L7.20509 3.75726L8.14789 2.81445L13.3334 7.99993L8.14789 13.1853L7.20509 12.2425L10.7811 8.6666H2.66669V7.33327H10.7811Z" fill="currentColor"/>
		</symbol>
		<symbol id="arrow-drop-down-line" xmlns="http://www.w3.org/2000/svg" viewBox="0 0 24 24" fill="none">
			<path d="M12 15.0006L7.75732 10.758L9.17154 9.34375L12 12.1722L14.8284 9.34375L16.2426 10.758L12 15.0006Z" fill="currentColor"/>
		</symbol>
		<symbol id="expand-right-line" xmlns="http://www.w3.org/2000/svg" viewBox="0 0 16 16" fill="none">
			<path d="M11.4482 7.3334L8.34363 4.22882L9.28643 3.28601L14.0005 8.00006L9.28643 12.7141L8.34363 11.7713L11.4482 8.66673L5.33363 8.6668L5.33361 7.33346L11.4482 7.3334ZM2.66699 12.6667V3.33335H4.00033V12.6667H2.66699Z" fill="currentColor"/>
		</symbol>
	</defs>
</svg> 
