<svg width="150" height="30" viewBox="0 0 150 30" fill="none" xmlns="http://www.w3.org/2000/svg">
<g id="Layer_1" clip-path="url(#clip0_1070_30609)">
<path id="Vector" d="M28.5931 15.1797C28.3973 15.2381 27.5762 15.6359 27.4947 15.5877C27.3876 15.2881 27.0502 15.1899 26.7428 15.2182C26.3055 15.2579 24.7131 15.6602 24.2895 15.8226C23.9612 15.9483 23.6995 16.214 23.7067 16.5823C23.7171 17.1225 23.9932 17.9451 24.0297 18.572C24.1433 20.5418 23.956 23.2019 23.1637 25.0267C22.9196 25.5888 22.5985 25.9841 21.9126 25.9006C20.0597 25.6754 19.2765 21.6409 19.1349 20.1747C19.0983 19.7981 19.007 19.0525 19.0833 18.7157C19.1727 18.3217 20.1719 18.1453 20.5707 17.9348C24.7013 15.752 24.6909 7.14647 23.3105 3.39679C21.9922 -0.184783 18.4842 -1.51745 16.3833 2.29832C14.7739 5.22094 14.4463 10.3482 14.4998 13.6462C14.5096 14.2512 14.8594 15.0231 13.9842 15.1842C13.154 15.3369 12.224 15.2849 11.4069 15.4081C11.2209 15.4363 11.0988 15.5608 10.9787 15.6923C10.4455 17.4183 10.0624 19.1911 9.51159 20.912C9.43132 21.1622 9.28904 21.7929 9.12196 21.9386C8.82044 22.2023 8.32508 22.0894 8.15996 21.7268L6.50811 15.7283L6.26598 15.5178C5.29223 15.3792 4.3733 15.2451 3.42631 14.9756C2.93095 14.8345 2.62616 14.4816 2.106 14.8601C1.72224 15.1399 0.558571 16.3032 0.247258 16.6856C0.0220941 16.9627 -0.12671 17.2996 0.148708 17.6159C0.339281 17.8354 1.21644 18.2563 1.52057 18.382C1.90955 18.5431 3.12282 18.8286 3.31079 19.0583C3.37801 19.1404 3.42174 19.2617 3.45829 19.3612C4.00194 20.8433 4.33218 22.6732 4.82885 24.2273C5.28635 25.6581 6.09759 28.4485 7.2939 29.3635C8.12667 30 9.18396 29.9577 10.0213 29.3539C11.4239 28.3427 12.6195 24.0746 13.1488 22.3704C13.421 21.4946 13.6481 20.21 13.9933 19.4208C14.2394 18.8588 14.8457 18.8292 15.1211 19.3753C15.7189 22.9986 16.6274 28.3587 20.8004 29.617C24.9532 30.8688 27.2453 26.6712 27.7335 23.3027C27.9659 21.698 27.5854 19.8347 29.4069 19.0545C31.0457 18.3519 31.981 19.6505 32.3321 21.0519C32.785 22.8593 32.5612 24.8798 32.1487 26.6764C32.0292 27.1961 31.7512 27.8493 31.6742 28.3241C31.5992 28.7867 31.7793 29.0196 32.182 29.2037C32.6277 29.4078 33.9983 29.8909 34.461 29.9763C35.5549 30.1784 35.5927 29.1094 35.8159 28.2901C36.6637 25.1807 37.2498 21.4073 35.7396 18.4122C34.4721 15.8976 31.4073 14.3372 28.5924 15.1803L28.5931 15.1797ZM18.4822 14.572L18.4137 11.8477C18.5338 10.4265 18.5612 8.98089 18.8184 7.56994C18.8784 7.23951 18.9319 6.5382 19.3111 6.45287C20.012 6.29503 20.1197 6.74866 20.1772 7.30431C20.3514 9.0027 20.1837 12.8082 19.0977 14.1826C18.9548 14.3635 18.7381 14.6195 18.4822 14.5714V14.572Z" fill="#F7F7F7"/>
<path id="Vector_2" d="M52.9265 25.4579L48.9153 14.572H46.1102L51.4978 29.1986C51.5448 29.2974 51.6231 29.2929 51.7171 29.3038C52.4246 29.384 53.2809 29.2339 54.0066 29.3045L59.5815 14.572H56.8091L52.9265 25.4579Z" fill="#F7F7F7"/>
<path id="Vector_3" d="M116.532 19.2155C111.697 17.2868 107.267 21.8879 109.195 26.5455C110.722 30.2336 116.361 30.3645 119.001 27.8602L117.937 26.4223C115.932 27.925 112.129 28.027 111.64 25.0101H119.305L119.403 24.9138V23.057C119.403 21.4798 117.971 19.7904 116.532 19.2162L116.532 19.2155ZM116.566 23.2809H111.673C111.607 23.2334 111.603 23.2244 111.602 23.15C111.595 22.1093 112.558 21.0365 113.595 20.8767C114.902 20.6746 116.135 21.041 116.5 22.3852C116.567 22.6341 116.699 23.0724 116.566 23.2809Z" fill="#F7F7F7"/>
<path id="Vector_4" d="M98.5929 24.9138C98.5929 25.3411 98.2229 26.2349 97.939 26.5769C97.2054 27.4611 95.376 27.5625 94.773 26.4858C94.6124 26.199 94.4179 25.4226 94.4179 25.1057V18.9903H91.6781V26.1303C91.6781 29.6016 96.3197 30.6108 98.3658 28.2759C98.4761 28.1502 98.5329 27.9731 98.6588 27.891V29.3H101.399V18.9903H98.5936V24.9138H98.5929Z" fill="#F7F7F7"/>
<path id="Vector_5" d="M60.7615 19.9174L61.6354 21.6139C63.2631 20.5276 67.1052 20.0708 66.9434 22.9196L66.8461 23.0152C64.5821 23.1288 60.304 23.073 60.101 26.1271C59.8569 29.8011 65.0161 30.5884 67.0184 28.1463V29.2987H69.693V22.4146C69.693 22.2337 69.492 21.4824 69.4176 21.2764C68.2624 18.0984 63.1469 18.3506 60.7622 19.9161L60.7615 19.9174ZM66.9532 26.5782C66.5068 27.069 66.0127 27.4726 65.3385 27.6183C64.0737 27.8922 62.6105 27.3533 62.9374 25.8377C63.2135 24.5602 65.9546 24.747 66.9532 24.6886V26.5775V26.5782Z" fill="#F7F7F7"/>
<path id="Vector_6" d="M121.107 19.9174L121.98 21.6139C123.677 20.509 127.536 20.0605 127.298 23.0248C125.228 23.1038 121.173 23.0537 120.543 25.5837C119.647 29.1851 124.314 30.598 126.807 28.7219L127.363 28.147V29.0754C127.363 29.11 127.464 29.2178 127.428 29.2993H130.037V22.3518C130.037 22.1176 129.8 21.3335 129.695 21.0865C128.436 18.0991 123.435 18.3974 121.107 19.9174ZM127.298 26.5782C126.523 27.9076 123.341 28.2483 123.25 26.3247C123.161 24.4422 126.037 24.7951 127.298 24.6892V26.5782Z" fill="#F7F7F7"/>
<path id="Vector_7" d="M149.658 20.7663C148.626 18.1664 144.344 18.126 143.085 20.5597C142.923 20.6451 143.085 20.3794 143.085 20.3672V18.9903H140.28V29.3H143.085V23.3765C143.085 22.9183 143.5 21.9546 143.834 21.6139C144.567 20.8651 146.192 20.7849 146.832 21.6832C147.014 21.9386 147.26 22.756 147.26 23.0557V29.2993H150V22.0951C150 21.8295 149.768 21.0409 149.658 20.7657V20.7663Z" fill="#F7F7F7"/>
<path id="Vector_8" d="M83.7386 23.268C84.3632 20.5918 87.7393 20.5963 89.5243 22.1285L90.2331 20.1241C89.4199 19.22 87.9515 18.853 86.7552 18.7959C82.8236 18.6073 80.0388 21.7852 80.8924 25.5747C81.6821 29.0812 85.7742 30.3362 88.937 29.0748C89.2463 28.9516 90.3212 28.3966 90.3075 28.0591C90.2899 27.6202 89.6503 26.668 89.5896 26.1624C87.0971 28.4595 82.8882 26.9106 83.7386 23.268Z" fill="#F7F7F7"/>
<path id="Vector_9" d="M74.9978 22.5237C73.8928 21.9238 74.2224 20.9767 75.4096 20.8548C76.3879 20.7541 77.3343 21.1705 78.1331 21.6742L79.3444 19.9174C78.1925 19.0384 76.538 18.6714 75.0944 18.8164C71.495 19.1783 70.458 23.3405 73.9163 24.7373C74.599 25.0132 76.882 25.5278 77.1013 26.2221C77.2775 26.7803 77.0177 27.1717 76.4962 27.3642C75.1224 27.8698 73.5182 26.9009 72.4661 26.0989L71.3403 27.9237C73.62 30.4998 80.1955 30.1212 79.7327 25.7537C79.4841 23.4092 76.572 23.3777 74.9991 22.5237H74.9978Z" fill="#F7F7F7"/>
<path id="Vector_10" d="M104.073 14.572V29.3H106.813V14.6683L106.715 14.572H104.073Z" fill="#F7F7F7"/>
<path id="Vector_11" d="M138.093 18.7991C137.214 18.742 136.458 19.0615 135.841 19.6608L135.191 20.6553V18.9903H132.451V29.3H135.191C135.272 27.5657 135.083 25.7389 135.188 24.0142C135.295 22.2536 135.903 21.0935 137.897 21.2321C138.029 21.2411 138.677 21.3958 138.714 21.3592L138.915 19.2136C138.996 18.86 138.359 18.8158 138.093 18.7991Z" fill="#F7F7F7"/>
</g>
<defs>
<clipPath id="clip0_1070_30609">
<rect width="150" height="30" fill="white"/>
</clipPath>
</defs>
</svg>
