<svg width="150" height="30" viewBox="0 0 150 30" fill="none" xmlns="http://www.w3.org/2000/svg">
<g id="Layer_1" clip-path="url(#clip0_1093_35936)">
<path id="Vector" d="M28.5932 15.1797C28.3974 15.2381 27.5764 15.6359 27.4948 15.5877C27.3877 15.2881 27.0503 15.1899 26.7429 15.2182C26.3057 15.2579 24.7132 15.6603 24.2896 15.8226C23.9613 15.9483 23.6996 16.214 23.7068 16.5823C23.7172 17.1225 23.9933 17.9451 24.0299 18.572C24.1434 20.5418 23.9561 23.202 23.1638 25.0267C22.9197 25.5888 22.5986 25.9841 21.9127 25.9006C20.0598 25.6754 19.2766 21.6409 19.135 20.1748C19.0985 19.7981 19.0071 19.0525 19.0834 18.7157C19.1729 18.3217 20.1721 18.1453 20.5708 17.9348C24.7014 15.752 24.691 7.14648 23.3106 3.3968C21.9923 -0.184775 18.4843 -1.51744 16.3834 2.29833C14.774 5.22095 14.4464 10.3482 14.4999 13.6462C14.5097 14.2512 14.8595 15.0231 13.9843 15.1842C13.1541 15.3369 12.2241 15.2849 11.407 15.4081C11.221 15.4363 11.099 15.5608 10.9789 15.6923C10.4457 17.4183 10.0626 19.1911 9.51172 20.912C9.43144 21.1622 9.28916 21.7929 9.12209 21.9386C8.82056 22.2023 8.3252 22.0894 8.16008 21.7269L6.50823 15.7283L6.2661 15.5178C5.29235 15.3792 4.37342 15.2451 3.42643 14.9756C2.93107 14.8345 2.62628 14.4816 2.10612 14.8601C1.72236 15.1399 0.558693 16.3032 0.24738 16.6856C0.0222161 16.9628 -0.126588 17.2996 0.14883 17.6159C0.339403 17.8354 1.21656 18.2563 1.5207 18.382C1.90967 18.5431 3.12295 18.8286 3.31091 19.0583C3.37813 19.1404 3.42186 19.2617 3.45841 19.3612C4.00206 20.8433 4.3323 22.6733 4.82897 24.2273C5.28647 25.6581 6.09771 28.4486 7.29402 29.3635C8.1268 30 9.18409 29.9577 10.0214 29.3539C11.424 28.3427 12.6196 24.0746 13.1489 22.3704C13.4211 21.4946 13.6482 20.21 13.9934 19.4208C14.2395 18.8588 14.8458 18.8293 15.1212 19.3753C15.719 22.9986 16.6275 28.3587 20.8006 29.617C24.9534 30.8688 27.2455 26.6712 27.7336 23.3027C27.966 21.698 27.5855 19.8347 29.407 19.0545C31.0458 18.3519 31.9811 19.6505 32.3322 21.0519C32.7851 22.8593 32.5613 24.8798 32.1488 26.6764C32.0294 27.1961 31.7513 27.8493 31.6743 28.3241C31.5993 28.7867 31.7794 29.0196 32.1821 29.2038C32.6278 29.4078 33.9984 29.8909 34.4611 29.9763C35.555 30.1784 35.5928 29.1094 35.816 28.2901C36.6638 25.1807 37.2499 21.4073 35.7397 18.4122C34.4722 15.8977 31.4074 14.3372 28.5925 15.1803L28.5932 15.1797ZM18.4824 14.572L18.4138 11.8477C18.5339 10.4265 18.5613 8.98089 18.8185 7.56995C18.8785 7.23951 18.932 6.53821 19.3112 6.45288C20.0122 6.29503 20.1199 6.74867 20.1773 7.30432C20.3515 9.00271 20.1838 12.8082 19.0978 14.1826C18.9549 14.3635 18.7382 14.6195 18.4824 14.5714V14.572Z" fill="#624573"/>
<path id="Vector_2" d="M52.9264 25.4579L48.9152 14.572H46.1101L51.4977 29.1986C51.5447 29.2974 51.623 29.2929 51.717 29.3038C52.4245 29.384 53.2807 29.2339 54.0065 29.3045L59.5814 14.572H56.809L52.9264 25.4579Z" fill="#624573"/>
<path id="Vector_3" d="M116.532 19.2155C111.697 17.2868 107.267 21.8879 109.195 26.5455C110.722 30.2335 116.361 30.3644 119.001 27.8602L117.937 26.4223C115.932 27.925 112.13 28.027 111.64 25.01H119.305L119.403 24.9138V23.0569C119.403 21.4798 117.971 19.7904 116.532 19.2161L116.532 19.2155ZM116.566 23.2809H111.673C111.607 23.2334 111.603 23.2244 111.602 23.15C111.595 22.1092 112.558 21.0364 113.595 20.8767C114.902 20.6746 116.135 21.0409 116.5 22.3851C116.568 22.6341 116.699 23.0723 116.566 23.2809Z" fill="#624573"/>
<path id="Vector_4" d="M98.5928 24.9138C98.5928 25.3411 98.2227 26.2349 97.9388 26.5769C97.2053 27.4611 95.3759 27.5625 94.7728 26.4858C94.6123 26.199 94.4178 25.4226 94.4178 25.1057V18.9903H91.678V26.1303C91.678 29.6016 96.3196 30.6108 98.3657 28.2759C98.476 28.1502 98.5327 27.9731 98.6587 27.891V29.3H101.399V18.9903H98.5934V24.9138H98.5928Z" fill="#624573"/>
<path id="Vector_5" d="M60.7616 19.9174L61.6355 21.6139C63.2632 20.5276 67.1054 20.0708 66.9435 22.9196L66.8463 23.0152C64.5822 23.1288 60.3041 23.073 60.1011 26.1271C59.8571 29.8011 65.0162 30.5884 67.0186 28.1463V29.2987H69.6931V22.4147C69.6931 22.2337 69.4921 21.4824 69.4177 21.2764C68.2625 18.0984 63.1471 18.3506 60.7623 19.9162L60.7616 19.9174ZM66.9533 26.5782C66.5069 27.069 66.0128 27.4726 65.3386 27.6183C64.0738 27.8923 62.6106 27.3533 62.9376 25.8378C63.2136 24.5603 65.9547 24.747 66.9533 24.6886V26.5776V26.5782Z" fill="#624573"/>
<path id="Vector_6" d="M121.107 19.9174L121.98 21.6139C123.678 20.509 127.536 20.0605 127.298 23.0249C125.228 23.1038 121.173 23.0537 120.543 25.5837C119.647 29.1851 124.314 30.598 126.807 28.7219L127.363 28.147V29.0754C127.363 29.1101 127.464 29.2179 127.428 29.2993H130.038V22.3518C130.038 22.1176 129.8 21.3335 129.696 21.0865C128.437 18.0991 123.435 18.3974 121.107 19.9174ZM127.298 26.5782C126.523 27.9076 123.341 28.2484 123.25 26.3247C123.161 24.4422 126.037 24.7951 127.298 24.6892V26.5782Z" fill="#624573"/>
<path id="Vector_7" d="M149.658 20.7663C148.625 18.1664 144.343 18.126 143.085 20.5597C142.923 20.645 143.085 20.3794 143.085 20.3672V18.9903H140.28V29.3H143.085V23.3765C143.085 22.9183 143.5 21.9546 143.834 21.6139C144.567 20.8651 146.192 20.7849 146.832 21.6832C147.013 21.9386 147.26 22.756 147.26 23.0556V29.2993H150V22.0951C150 21.8295 149.768 21.0409 149.658 20.7657V20.7663Z" fill="#624573"/>
<path id="Vector_8" d="M83.7387 23.268C84.3633 20.5918 87.7395 20.5963 89.5245 22.1285L90.2332 20.124C89.42 19.22 87.9516 18.853 86.7553 18.7959C82.8237 18.6072 80.0389 21.7852 80.8925 25.5747C81.6822 29.0812 85.7743 30.3362 88.9371 29.0748C89.2464 28.9516 90.3213 28.3966 90.3076 28.0591C90.29 27.6202 89.6504 26.668 89.5897 26.1624C87.0973 28.4594 82.8883 26.9106 83.7387 23.268Z" fill="#624573"/>
<path id="Vector_9" d="M74.9978 22.5237C73.8928 21.9238 74.2224 20.9768 75.4096 20.8549C76.3879 20.7541 77.3343 21.1705 78.1331 21.6742L79.3444 19.9174C78.1925 19.0384 76.538 18.6714 75.0944 18.8164C71.495 19.1783 70.458 23.3405 73.9163 24.7374C74.599 25.0133 76.882 25.5278 77.1013 26.2221C77.2775 26.7803 77.0177 27.1717 76.4962 27.3642C75.1224 27.8698 73.5182 26.9009 72.4661 26.0989L71.3403 27.9237C73.62 30.4998 80.1955 30.1213 79.7327 25.7537C79.4841 23.4092 76.572 23.3777 74.9991 22.5237H74.9978Z" fill="#624573"/>
<path id="Vector_10" d="M104.073 14.572V29.3H106.813V14.6683L106.715 14.572H104.073Z" fill="#624573"/>
<path id="Vector_11" d="M138.093 18.7991C137.214 18.742 136.458 19.0615 135.841 19.6608L135.191 20.6553V18.9903H132.451V29.3H135.191C135.272 27.5657 135.083 25.7389 135.188 24.0142C135.295 22.2536 135.903 21.0936 137.897 21.2321C138.029 21.2411 138.677 21.3958 138.714 21.3592L138.915 19.2136C138.996 18.86 138.359 18.8158 138.093 18.7991Z" fill="#624573"/>
</g>
<defs>
<clipPath id="clip0_1093_35936">
<rect width="150" height="30" fill="white"/>
</clipPath>
</defs>
</svg>
